<svg width="24" height="24" viewBox="0 0 24 24" fill="none" xmlns="http://www.w3.org/2000/svg">
<path d="M12 0C5.35385 0 0 5.35385 0 12C0 18.6462 5.35385 24 12 24C18.6462 24 24 18.6462 24 12C24 10.7077 23.8161 9.41574 23.3546 8.21574L21.8762 9.69231C22.0608 10.4308 22.1538 11.1692 22.1538 12C22.1538 17.6308 17.6308 22.1538 12 22.1538C6.36923 22.1538 1.84615 17.6308 1.84615 12C1.84615 6.36923 6.36923 1.84615 12 1.84615C14.7692 1.84615 17.1689 2.95349 19.015 4.70733L20.3077 3.41466C18.1846 1.29159 15.2308 0 12 0ZM22.4315 4.15385L12 14.5853L8.03005 10.6154L6.73918 12L12 17.2608L23.7224 5.53846L22.4315 4.15385Z" fill="url(#paint0_linear_393_3189)"/>
<defs>
<linearGradient id="paint0_linear_393_3189" x1="27.0769" y1="6.86338e-07" x2="-0.0106818" y2="23.9986" gradientUnits="userSpaceOnUse">
<stop offset="0.25" stop-color="#3B768F"/>
<stop offset="0.536458" stop-color="#3EC6FF"/>
<stop offset="0.817708" stop-color="#3B768F"/>
</linearGradient>
</defs>
</svg>
