<svg width="23" height="23" viewBox="0 0 23 23" fill="none" xmlns="http://www.w3.org/2000/svg">
<path d="M4.92002 0.494364C4.53526 0.463114 4.10752 0.574443 3.71299 0.851786C3.36533 1.09397 2.61533 1.68968 1.91416 2.36351C1.56455 2.69944 1.23057 3.04905 0.972757 3.3928C0.712991 3.73655 0.486428 4.05101 0.5001 4.50804C0.513772 4.91819 0.554788 6.13108 1.42783 7.99046C2.30088 9.84788 3.99424 12.3967 7.29698 15.7014C10.6017 19.0061 13.1505 20.6994 15.0079 21.5725C16.8653 22.4455 18.0802 22.4866 18.4903 22.5002C18.9454 22.5139 19.2599 22.2873 19.6036 22.0276C19.9474 21.7678 20.297 21.4358 20.6329 21.0862C21.3048 20.385 21.9005 19.635 22.1427 19.2873C22.6954 18.5002 22.6036 17.5705 21.9884 17.1389C21.6017 16.8674 18.045 14.5002 17.5099 14.1721C16.9669 13.8401 16.3419 13.9905 15.7833 14.2854C15.3439 14.5178 14.1544 15.1994 13.8146 15.3948C13.5587 15.2326 12.588 14.5862 10.5001 12.4983C8.41026 10.4104 7.76573 9.43968 7.60362 9.18382C7.79893 8.84397 8.47862 7.66038 8.71299 7.21311C9.00596 6.65647 9.17002 6.02561 8.82041 5.47874C8.67393 5.24632 8.00791 4.23265 7.33604 3.21507C6.66221 2.19749 6.02354 1.23265 5.85752 1.00218V1.00022C5.64073 0.701396 5.30283 0.525614 4.92002 0.494364ZM4.82823 1.51585C4.96494 1.53343 5.04698 1.58811 5.04698 1.58811C5.12705 1.69944 5.82823 2.75022 6.5001 3.76585C7.17198 4.78343 7.85752 5.8264 7.97666 6.01585C7.99619 6.04515 8.02354 6.37718 7.82823 6.74632V6.74827C7.60752 7.16819 6.57823 8.96702 6.57823 8.96702L6.43565 9.21897L6.58213 9.46897C6.58213 9.46897 7.34971 10.7639 9.79112 13.2053C12.2345 15.6467 13.5294 16.4162 13.5294 16.4162L13.7794 16.5627L14.0314 16.4201C14.0314 16.4201 15.8263 15.3928 16.2501 15.1701C16.6192 14.9768 16.9513 15.0022 16.9903 15.0256C17.336 15.2385 21.1778 17.7912 21.4142 17.9573C21.422 17.9631 21.631 18.2795 21.3263 18.7131H21.3243C21.1407 18.9768 20.5392 19.7405 19.9122 20.3928C19.5978 20.719 19.2755 21.0237 19.0021 21.2287C18.7286 21.4338 18.4845 21.4983 18.5235 21.5002C18.0978 21.4866 17.1583 21.4768 15.4337 20.6662C13.7091 19.8576 11.2481 18.2385 8.00401 14.9924C4.76182 11.7502 3.14268 9.28929 2.33213 7.56272C1.52354 5.83811 1.51377 4.89866 1.5001 4.47483C1.50205 4.5139 1.56651 4.2678 1.77158 3.99436C1.97666 3.72093 2.2794 3.39671 2.60557 3.08226C3.25987 2.4553 4.02158 1.85374 4.28526 1.67015V1.6721C4.50205 1.51976 4.69151 1.50022 4.82823 1.51585Z" fill="url(#paint0_linear_177_2233)"/>
<defs>
<linearGradient id="paint0_linear_177_2233" x1="11.5039" y1="0.489258" x2="11.5039" y2="22.5008" gradientUnits="userSpaceOnUse">
<stop stop-color="#4ABCEC"/>
<stop offset="1" stop-color="#4A8BEC"/>
</linearGradient>
</defs>
</svg>
