<svg width="28" height="27" viewBox="0 0 28 27" fill="none" xmlns="http://www.w3.org/2000/svg">
<g clip-path="url(#clip0_341_3023)">
<path d="M0.455073 0C0.188198 0.0485156 -0.00430191 0.276328 7.30855e-05 0.54V22.14C7.30855e-05 22.4374 0.251636 22.68 0.560073 22.68H9.52007V21.6H1.12007V1.08H26.8801V21.6H18.4801V22.68H27.4401C27.7485 22.68 28.0001 22.4374 28.0001 22.14V0.54C28.0001 0.242578 27.7485 0 27.4401 0H0.560073C0.542573 0 0.525073 0 0.507573 0C0.490073 0 0.472573 0 0.455073 0ZM5.60007 4.86V5.94H22.4001V4.86H5.60007ZM5.60007 7.56V8.64H22.4001V7.56H5.60007ZM5.60007 10.26V11.34H22.4001V10.26H5.60007ZM13.9476 12.9094C13.3613 12.9094 12.8954 13.2469 12.6001 13.7025C12.0532 13.5337 11.456 13.5844 11.0076 13.9556C10.5526 14.3311 10.4126 14.888 10.4826 15.4237C9.94882 15.6389 9.53539 16.0481 9.41507 16.5712C9.41507 16.5881 9.41507 16.605 9.41507 16.6219C9.34726 17.1429 9.58789 17.6196 9.97507 17.9887C9.72132 18.4781 9.62726 19.0455 9.92257 19.5412C10.0888 19.8218 10.3491 20.0053 10.6401 20.1319V26.46C10.6444 26.6498 10.7538 26.8249 10.9244 26.9177C11.0973 27.0127 11.3094 27.0105 11.4801 26.9156L14.0001 25.4644L16.5201 26.9156C16.6907 27.0105 16.9029 27.0127 17.0757 26.9177C17.2463 26.8249 17.3557 26.6498 17.3601 26.46V19.9125C17.4913 19.8197 17.6116 19.7248 17.7101 19.5919C17.7166 19.575 17.7232 19.5581 17.7276 19.5412C18.0141 19.0561 17.9485 18.5055 17.7101 18.0225C18.211 17.666 18.5413 17.1555 18.4801 16.6219C18.4757 16.605 18.4691 16.5881 18.4626 16.5712C18.3357 16.0249 17.9157 15.6284 17.3951 15.4069C17.4585 14.8774 17.3382 14.329 16.8876 13.9556C16.4216 13.5717 15.8266 13.5612 15.2951 13.7025C14.9976 13.2616 14.5513 12.9094 13.9476 12.9094ZM13.9476 13.9894C14.2035 13.9894 14.3894 14.137 14.4901 14.3944C14.5513 14.5462 14.6782 14.6644 14.8401 14.715C14.8488 14.7192 14.9232 14.7213 14.9451 14.7319C14.9735 14.7403 14.9516 14.7487 15.0151 14.7487C15.0676 14.7677 15.0698 14.7994 15.1726 14.7994C15.2644 14.7973 15.3541 14.7741 15.4351 14.7319C15.7326 14.5884 15.9404 14.5905 16.1526 14.7656C16.3735 14.9491 16.4194 15.1896 16.3276 15.4237C16.2619 15.6115 16.3101 15.8182 16.4501 15.9637C16.4719 16.0059 16.496 16.0755 16.5726 16.1494C16.6491 16.2253 16.7454 16.278 16.8526 16.3012C17.1654 16.3687 17.2857 16.4995 17.3601 16.7906C17.3819 17.0395 17.3404 17.1745 16.9401 17.3137C16.7191 17.3918 16.5726 17.5943 16.5726 17.82V18.0394C16.5748 18.1491 16.6119 18.2545 16.6776 18.3431C16.8373 18.5604 16.8504 18.8135 16.7651 18.9844C16.5923 19.1953 16.3429 19.3134 16.1351 19.2881C15.9666 19.2691 15.8004 19.3261 15.6801 19.44L15.5051 19.5919C15.4001 19.6952 15.3432 19.8366 15.3476 19.98C15.3476 20.2669 15.2316 20.4124 14.9801 20.5031C14.9735 20.5031 14.9691 20.5031 14.9626 20.5031C14.9626 20.4968 14.8707 20.52 14.7876 20.52C14.6388 20.52 14.4901 20.4525 14.3326 20.3006C14.2298 20.2036 14.0919 20.1509 13.9476 20.1487H13.6676C13.5188 20.1445 13.3723 20.1994 13.2651 20.3006C13.0398 20.5179 12.8538 20.5812 12.6351 20.5031C12.4207 20.4251 12.2676 20.1867 12.2676 19.98C12.2654 19.8323 12.2041 19.6931 12.0926 19.5919L11.9351 19.44C11.8104 19.3219 11.6354 19.2649 11.4626 19.2881C11.2416 19.3155 11.0119 19.2037 10.9026 19.0181C10.8019 18.8473 10.8216 18.5709 10.9901 18.3431C11.0557 18.2545 11.0929 18.1491 11.0951 18.0394V17.82C11.0929 17.6217 10.9791 17.4403 10.7976 17.3475C10.6488 17.2652 10.5285 16.9952 10.5351 16.7906C10.6116 16.4932 10.7516 16.3266 10.9901 16.3012C11.1148 16.2886 11.2329 16.2337 11.3226 16.1494C11.4079 16.0671 11.4429 15.9827 11.4626 15.9469C11.5851 15.7992 11.6179 15.6009 11.5501 15.4237C11.4582 15.1896 11.5041 14.9491 11.7251 14.7656C11.9394 14.5884 12.2326 14.5884 12.3901 14.6981C12.5607 14.812 12.7838 14.8247 12.9676 14.7319C12.9741 14.7319 12.9785 14.7319 12.9851 14.7319C13.0026 14.7277 13.0201 14.7213 13.0376 14.715C13.2279 14.6602 13.3744 14.5125 13.4226 14.3269C13.4663 14.1623 13.6916 13.9894 13.9476 13.9894ZM16.2401 20.6719V25.515L14.2801 24.3844C14.1073 24.2873 13.8929 24.2873 13.7201 24.3844L11.7601 25.515V21.2287C11.8913 21.349 12.0466 21.4481 12.2326 21.5156C12.7882 21.716 13.3219 21.522 13.7551 21.2287C13.7594 21.2266 13.7682 21.2309 13.7726 21.2287C13.7769 21.2309 13.7857 21.2266 13.7901 21.2287C14.0591 21.427 14.3829 21.6 14.7876 21.6C14.8882 21.6 15.1048 21.5979 15.3651 21.4987C15.3738 21.4903 15.3891 21.4861 15.4001 21.4819C15.4154 21.4755 15.4198 21.4903 15.4351 21.4819V21.465C15.8048 21.3089 16.0782 21.022 16.2401 20.6719Z" fill="url(#paint0_linear_341_3023)"/>
</g>
<defs>
<linearGradient id="paint0_linear_341_3023" x1="31.5898" y1="7.71784e-07" x2="1.01501" y2="28.1041" gradientUnits="userSpaceOnUse">
<stop offset="0.25" stop-color="#3B768F"/>
<stop offset="0.536458" stop-color="#3EC6FF"/>
<stop offset="0.817708" stop-color="#3B768F"/>
</linearGradient>
<clipPath id="clip0_341_3023">
<rect width="28" height="27" fill="white"/>
</clipPath>
</defs>
</svg>
