<svg width="25" height="24" viewBox="0 0 25 24" fill="none" xmlns="http://www.w3.org/2000/svg">
<path d="M12.5 0.5C8.21484 0.5 4.62109 3.51562 3.71875 7.53125C3.81055 7.52148 3.90625 7.5 4 7.5C4.25586 7.5 4.50195 7.55273 4.73438 7.625C5.58203 4.11914 8.73633 1.5 12.5 1.5C16.2617 1.5 19.418 4.11914 20.2656 7.625C20.498 7.55273 20.7422 7.5 21 7.5C21.0938 7.5 21.1895 7.52148 21.2812 7.53125C20.3789 3.51562 16.7832 0.5 12.5 0.5ZM4 8.5C3.17383 8.5 2.5 9.17383 2.5 10V17.5C2.5 18.3262 3.17383 19 4 19C4.82617 19 5.5 18.3262 5.5 17.5V10C5.5 9.17383 4.82617 8.5 4 8.5ZM21 8.5C20.1738 8.5 19.5 9.17383 19.5 10V17.5C19.5 18.3262 20.1738 19 21 19C21.8262 19 22.5 18.3262 22.5 17.5V10C22.5 9.17383 21.8262 8.5 21 8.5ZM1.5 10.0625C0.597656 10.7871 0 12.1465 0 13.75C0 15.3535 0.597656 16.7129 1.5 17.4375V10.0625ZM23.5 10.0625V17.4375C24.4023 16.7129 25 15.3535 25 13.75C25 12.1465 24.4023 10.7871 23.5 10.0625ZM20.2969 19.8906C19.8555 21.248 18.709 22 17 22H16.4531C16.4863 22.1621 16.5 22.3281 16.5 22.5C16.5 22.6719 16.4863 22.8379 16.4531 23H17C19.2461 23 20.8008 21.8711 21.3125 19.9688C21.207 19.9824 21.1074 20 21 20C20.7539 20 20.5215 19.957 20.2969 19.8906ZM11.5 21C10.6738 21 10 21.6738 10 22.5C10 23.3262 10.6738 24 11.5 24H14C14.8262 24 15.5 23.3262 15.5 22.5C15.5 21.6738 14.8262 21 14 21H11.5Z" fill="white"/>
</svg>
