<svg width="40" height="40" viewBox="0 0 40 40" fill="none" xmlns="http://www.w3.org/2000/svg">
<path d="M4.80039 2.40002C3.47719 2.40002 2.40039 3.47682 2.40039 4.80002V12.8C2.40039 14.1232 3.47719 15.2 4.80039 15.2H7.20039V16.8C7.19889 16.906 7.21848 17.0113 7.25801 17.1097C7.29754 17.208 7.35623 17.2976 7.43066 17.3731C7.5051 17.4486 7.5938 17.5085 7.6916 17.5494C7.78941 17.5903 7.89437 17.6114 8.00039 17.6114C8.10641 17.6114 8.21137 17.5903 8.30918 17.5494C8.40699 17.5085 8.49568 17.4486 8.57012 17.3731C8.64455 17.2976 8.70324 17.208 8.74277 17.1097C8.7823 17.0113 8.80189 16.906 8.80039 16.8V15.2H12.8004C14.1236 15.2 15.2004 14.1232 15.2004 12.8V9.60002H19.2004C19.3064 9.60152 19.4116 9.58194 19.51 9.54241C19.6084 9.50288 19.6979 9.44419 19.7734 9.36975C19.8489 9.29532 19.9089 9.20662 19.9498 9.10881C19.9907 9.01101 20.0118 8.90604 20.0118 8.80002C20.0118 8.694 19.9907 8.58904 19.9498 8.49123C19.9089 8.39343 19.8489 8.30473 19.7734 8.2303C19.6979 8.15586 19.6084 8.09717 19.51 8.05764C19.4116 8.01811 19.3064 7.99852 19.2004 8.00002H15.2004V4.80002C15.2004 3.47682 14.1236 2.40002 12.8004 2.40002H4.80039ZM27.2004 2.40002C25.8772 2.40002 24.8004 3.47682 24.8004 4.80002V8.00002H22.4004C22.2944 7.99852 22.1891 8.01811 22.0908 8.05764C21.9924 8.09717 21.9028 8.15586 21.8273 8.2303C21.7519 8.30473 21.6919 8.39343 21.651 8.49123C21.6101 8.58904 21.589 8.694 21.589 8.80002C21.589 8.90604 21.6101 9.01101 21.651 9.10881C21.6919 9.20662 21.7519 9.29532 21.8273 9.36975C21.9028 9.44419 21.9924 9.50288 22.0908 9.54241C22.1891 9.58194 22.2944 9.60152 22.4004 9.60002H24.8004V12.8C24.8004 14.1232 25.8772 15.2 27.2004 15.2H30.4004V19.2C30.3989 19.306 30.4185 19.4113 30.458 19.5097C30.4975 19.608 30.5562 19.6976 30.6307 19.7731C30.7051 19.8486 30.7938 19.9085 30.8916 19.9494C30.9894 19.9903 31.0944 20.0114 31.2004 20.0114C31.3064 20.0114 31.4114 19.9903 31.5092 19.9494C31.607 19.9085 31.6957 19.8486 31.7701 19.7731C31.8446 19.6976 31.9032 19.608 31.9428 19.5097C31.9823 19.4113 32.0019 19.306 32.0004 19.2V15.2H35.2004C36.5236 15.2 37.6004 14.1232 37.6004 12.8V4.80002C37.6004 3.47682 36.5236 2.40002 35.2004 2.40002H27.2004ZM7.98789 19.1891C7.77599 19.1924 7.57406 19.2796 7.42642 19.4317C7.27878 19.5837 7.19749 19.7881 7.20039 20V24.8H4.80039C3.47719 24.8 2.40039 25.8768 2.40039 27.2V35.2C2.40039 36.5232 3.47719 37.6 4.80039 37.6H12.8004C14.1236 37.6 15.2004 36.5232 15.2004 35.2V32H17.6004C17.7064 32.0015 17.8116 31.9819 17.91 31.9424C18.0084 31.9029 18.0979 31.8442 18.1734 31.7697C18.2489 31.6953 18.3089 31.6066 18.3498 31.5088C18.3907 31.411 18.4118 31.306 18.4118 31.2C18.4118 31.094 18.3907 30.989 18.3498 30.8912C18.3089 30.7934 18.2489 30.7047 18.1734 30.6303C18.0979 30.5559 18.0084 30.4972 17.91 30.4576C17.8116 30.4181 17.7064 30.3985 17.6004 30.4H15.2004V27.2C15.2004 25.8768 14.1236 24.8 12.8004 24.8H8.80039V20C8.80186 19.893 8.78183 19.7868 8.7415 19.6876C8.70116 19.5885 8.64135 19.4984 8.56558 19.4228C8.48982 19.3472 8.39965 19.2875 8.30042 19.2474C8.20119 19.2072 8.09492 19.1874 7.98789 19.1891ZM31.1879 21.5891C30.976 21.5924 30.7741 21.6796 30.6264 21.8317C30.4788 21.9837 30.3975 22.1881 30.4004 22.4V24H27.2004C25.8772 24 24.8004 25.0768 24.8004 26.4V30.4H20.8004C20.6944 30.3985 20.5891 30.4181 20.4908 30.4576C20.3924 30.4972 20.3028 30.5559 20.2273 30.6303C20.1519 30.7047 20.0919 30.7934 20.051 30.8912C20.0101 30.989 19.989 31.094 19.989 31.2C19.989 31.306 20.0101 31.411 20.051 31.5088C20.0919 31.6066 20.1519 31.6953 20.2273 31.7697C20.3028 31.8442 20.3924 31.9029 20.4908 31.9424C20.5891 31.9819 20.6944 32.0015 20.8004 32H24.8004V34.4C24.8004 35.7232 25.8772 36.8 27.2004 36.8H35.2004C36.5236 36.8 37.6004 35.7232 37.6004 34.4V26.4C37.6004 25.0768 36.5236 24 35.2004 24H32.0004V22.4C32.0019 22.293 31.9818 22.1868 31.9415 22.0876C31.9012 21.9885 31.8413 21.8984 31.7656 21.8228C31.6898 21.7472 31.5997 21.6875 31.5004 21.6474C31.4012 21.6072 31.2949 21.5874 31.1879 21.5891Z" fill="url(#paint0_linear_436_83)"/>
<defs>
<linearGradient id="paint0_linear_436_83" x1="42.1132" y1="2.40003" x2="2.38472" y2="37.598" gradientUnits="userSpaceOnUse">
<stop offset="0.25" stop-color="#3B768F"/>
<stop offset="0.536458" stop-color="#3EC6FF"/>
<stop offset="0.817708" stop-color="#3B768F"/>
</linearGradient>
</defs>
</svg>
