<svg width="36" height="36" viewBox="0 0 36 36" fill="none" xmlns="http://www.w3.org/2000/svg">
<path d="M12.2396 0C11.843 0 11.5196 0.323438 11.5196 0.72V6.48C11.5196 6.87656 11.843 7.2 12.2396 7.2H23.7596C24.159 7.2 24.4796 6.87656 24.4796 6.48V0.72C24.4796 0.323438 24.159 0 23.7596 0H12.2396ZM5.75961 1.44C4.56992 1.44 3.59961 2.41031 3.59961 3.6V33.84C3.59961 35.0297 4.56992 36 5.75961 36H30.2396C31.4293 36 32.3996 35.0297 32.3996 33.84V3.6C32.3996 2.41031 31.4293 1.44 30.2396 1.44H25.9196V4.32H29.5196V33.12H6.47961V4.32H10.0796V1.44H5.75961ZM7.91961 5.76V31.68H28.0796V5.76H25.9196V6.48C25.9196 7.66969 24.9493 8.64 23.7596 8.64H12.2396C11.0499 8.64 10.0796 7.66969 10.0796 6.48V5.76H7.91961ZM10.7996 12.24H16.5596V18H10.7996V12.24ZM12.2396 13.68V16.56H15.1196V13.68H12.2396ZM18.7196 14.4H25.1996V15.84H18.7196V14.4ZM10.7996 21.6H16.5596V27.36H10.7996V21.6ZM12.2396 23.04V25.92H15.1196V23.04H12.2396ZM12.9596 23.76H14.3996V25.2H12.9596V23.76ZM18.7196 23.76H25.1996V25.2H18.7196V23.76Z" fill="url(#paint0_linear_436_96)"/>
<defs>
<linearGradient id="paint0_linear_436_96" x1="36.0919" y1="1.02951e-06" x2="-2.52703" y2="27.372" gradientUnits="userSpaceOnUse">
<stop offset="0.25" stop-color="#3B768F"/>
<stop offset="0.536458" stop-color="#3EC6FF"/>
<stop offset="0.817708" stop-color="#3B768F"/>
</linearGradient>
</defs>
</svg>
