<svg width="41" height="41" viewBox="0 0 41 41" fill="none" xmlns="http://www.w3.org/2000/svg">
<path d="M22.0631 4.09998C14.792 4.09998 12.0918 9.71826 14.1706 14.4781C13.9112 14.6511 13.4948 15.1924 13.5813 16.1437C13.7542 17.8734 14.5326 18.2866 14.965 18.3731C15.138 20.0163 16.179 21.9318 16.7844 22.1912C16.7844 23.3155 16.7684 24.2572 16.6819 25.4712C15.3558 28.953 6.88031 28.1458 5.79125 34.3887C5.7432 34.661 6.02508 35.26 6.58563 35.26H34.44C35.2728 35.26 35.2568 34.645 35.2087 34.3631C34.1005 28.1458 25.6442 28.9498 24.3181 25.4712C24.2316 24.1708 24.2156 23.3155 24.2156 22.1912C24.821 21.9318 25.7852 19.9298 25.9581 18.3731C26.3905 18.3731 27.0824 17.851 27.3419 16.1181C27.4284 15.1668 27.0728 14.5646 26.7269 14.4781C28.1106 12.7484 27.8608 5.6631 22.755 5.6631L22.0631 4.09998ZM12.4281 8.19998C6.95398 8.29287 4.55484 12.6491 6.20125 16.3744C6.02508 16.4608 5.67914 16.9189 5.76562 17.7069C5.9418 19.1098 6.46391 19.4494 6.81625 19.4494C6.98922 20.7626 7.76437 22.2361 8.2 22.4987C8.2 23.3732 8.20961 23.3476 8.12313 24.395C7.41203 26.6372 0 26.4706 0 31.98C0 31.98 0 32.8 0.82 32.8H4.53562C5.78805 29.2573 9.19297 27.8928 11.7619 26.8806C13.1777 26.3233 14.6287 25.7595 15.0675 25.0612C15.1155 24.2989 15.1412 23.6519 15.1444 22.9344C14.366 22.0439 13.7863 20.6569 13.5044 19.475C12.8381 18.9817 12.1174 18.0336 11.9412 16.2719C11.8644 15.4358 12.0405 14.7408 12.3256 14.1962C11.6754 12.1751 11.717 10.0642 12.4281 8.19998ZM31.16 8.19998C30.3752 8.19998 29.4495 8.26404 28.5719 8.40498C29.2285 10.3301 29.2541 12.6299 28.6744 14.2731C28.9306 14.8369 29.0491 15.5223 28.9819 16.2719L28.9562 16.3231V16.3744C28.7128 17.9855 28.1202 18.9657 27.4187 19.5006C27.1529 20.6089 26.6116 22.0086 25.8556 22.9087C25.8588 23.6134 25.8845 24.2476 25.9325 25.0612C26.3713 25.7595 27.8255 26.3233 29.2381 26.8806C31.8038 27.8896 35.2087 29.2573 36.4644 32.8H40.18C41 32.8 41 32.0056 41 32.0056C41.0032 25.6634 33.982 27.1657 32.9281 24.2669C32.8384 23.2995 32.8256 23.3892 32.8256 22.4219C33.2645 22.1592 34.0716 20.6826 34.1581 19.4494C34.5105 19.4494 35.0326 19.0874 35.2087 17.6812C35.2952 16.9797 35.0358 16.4608 34.7731 16.3744C35.8302 14.9682 35.6572 9.42998 31.6981 9.42998L31.16 8.19998Z" fill="url(#paint0_linear_436_102)"/>
<defs>
<linearGradient id="paint0_linear_436_102" x1="46.2564" y1="4.09998" x2="11.2421" y2="44.9176" gradientUnits="userSpaceOnUse">
<stop offset="0.25" stop-color="#3B768F"/>
<stop offset="0.536458" stop-color="#3EC6FF"/>
<stop offset="0.817708" stop-color="#3B768F"/>
</linearGradient>
</defs>
</svg>
