<svg width="38" height="38" viewBox="0 0 38 38" fill="none" xmlns="http://www.w3.org/2000/svg">
<path d="M3.80004 3.03998C3.38204 3.03998 3.04004 3.38198 3.04004 3.79998V11.4C3.04004 11.818 3.38204 12.16 3.80004 12.16H34.2C34.618 12.16 34.96 11.818 34.96 11.4V3.79998C34.96 3.38198 34.618 3.03998 34.2 3.03998H3.80004ZM7.60004 6.83998C8.01804 6.83998 8.36004 7.18198 8.36004 7.59998C8.36004 8.01798 8.01804 8.35998 7.60004 8.35998C7.18204 8.35998 6.84004 8.01798 6.84004 7.59998C6.84004 7.18198 7.18204 6.83998 7.60004 6.83998ZM10.64 6.83998C11.058 6.83998 11.4 7.18198 11.4 7.59998C11.4 8.01798 11.058 8.35998 10.64 8.35998C10.222 8.35998 9.88004 8.01798 9.88004 7.59998C9.88004 7.18198 10.222 6.83998 10.64 6.83998ZM13.68 6.83998C14.098 6.83998 14.44 7.18198 14.44 7.59998C14.44 8.01798 14.098 8.35998 13.68 8.35998C13.262 8.35998 12.92 8.01798 12.92 7.59998C12.92 7.18198 13.262 6.83998 13.68 6.83998ZM3.04004 14.44V34.2C3.04006 34.4015 3.12014 34.5948 3.26266 34.7374C3.40518 34.8799 3.59848 34.96 3.80004 34.96H34.2C34.4016 34.96 34.5949 34.8799 34.7374 34.7374C34.8799 34.5948 34.96 34.4015 34.96 34.2V14.44H33.44V33.44H4.56004V14.44H3.04004ZM7.60004 14.44C7.18052 14.44 6.84004 14.7797 6.84004 15.2V30.4C6.84004 30.8203 7.18052 31.16 7.60004 31.16H17.48C17.8996 31.16 18.24 30.8203 18.24 30.4V15.2C18.24 14.7797 17.8996 14.44 17.48 14.44H7.60004ZM20.52 14.44V15.96H31.16V14.44H20.52ZM20.52 18.24V19.76H31.16V18.24H20.52ZM20.52 22.04V23.56H31.16V22.04H20.52ZM20.52 25.84V27.36H31.16V25.84H20.52ZM20.52 29.64V31.16H31.16V29.64H20.52Z" fill="url(#paint0_linear_436_90)"/>
<defs>
<linearGradient id="paint0_linear_436_90" x1="39.0524" y1="3.03998" x2="3.02583" y2="34.9582" gradientUnits="userSpaceOnUse">
<stop offset="0.25" stop-color="#3B768F"/>
<stop offset="0.536458" stop-color="#3EC6FF"/>
<stop offset="0.817708" stop-color="#3B768F"/>
</linearGradient>
</defs>
</svg>
