<svg width="40" height="40" viewBox="0 0 40 40" fill="none" xmlns="http://www.w3.org/2000/svg">
<path d="M15.2004 2.40002V3.20002H12.0004V37.6H15.2004V36.8H16.0004V37.6H16.8004V36.8H17.6004V37.6H18.4004V36.8H19.2004V37.6H20.0004V36.8H20.8004V37.6H21.6004V36.8H22.4004V37.6H23.2004V36.8H24.0004V37.6H27.2004V3.20002H24.0004V2.40002H15.2004ZM10.4004 5.7344L2.40039 9.06565V37.6H5.60039V36H6.40039V37.6H7.20039V36H8.00039V37.6H8.80039V36H9.60039V37.6H10.4004V5.7344ZM15.2004 6.40002H16.0004V7.20002H15.2004V6.40002ZM16.8004 6.40002H17.6004V7.20002H16.8004V6.40002ZM18.4004 6.40002H19.2004V7.20002H18.4004V6.40002ZM20.0004 6.40002H20.8004V7.20002H20.0004V6.40002ZM21.6004 6.40002H22.4004V7.20002H21.6004V6.40002ZM23.2004 6.40002H24.0004V7.20002H23.2004V6.40002ZM15.2004 8.00002H16.0004V8.80002H15.2004V8.00002ZM16.8004 8.00002H17.6004V8.80002H16.8004V8.00002ZM18.4004 8.00002H19.2004V8.80002H18.4004V8.00002ZM20.0004 8.00002H20.8004V8.80002H20.0004V8.00002ZM21.6004 8.00002H22.4004V8.80002H21.6004V8.00002ZM23.2004 8.00002H24.0004V8.80002H23.2004V8.00002ZM9.60039 9.38752V11.2H8.80039V9.6969L9.60039 9.38752ZM15.2004 9.60002H16.0004V10.4H15.2004V9.60002ZM16.8004 9.60002H17.6004V10.4H16.8004V9.60002ZM18.4004 9.60002H19.2004V10.4H18.4004V9.60002ZM20.0004 9.60002H20.8004V10.4H20.0004V9.60002ZM21.6004 9.60002H22.4004V10.4H21.6004V9.60002ZM23.2004 9.60002H24.0004V10.4H23.2004V9.60002ZM28.8004 9.60002V12.8H29.6004V13.6H28.8004V14.4H29.6004V15.2H28.8004V16H29.6004V16.8H28.8004V17.6H29.6004V18.4H28.8004V19.2H29.6004V20H28.8004V20.8H29.6004V21.6H28.8004V22.4H29.6004V23.2H28.8004V24H29.6004V24.8H28.8004V25.6H29.6004V26.4H28.8004V27.2H29.6004V28H28.8004V28.8H29.6004V29.6H28.8004V30.4H29.6004V31.2H28.8004V32H29.6004V32.8H28.8004V33.6H29.6004V34.4H28.8004V35.2H29.6004V36H28.8004V36.8H29.6004V37.6H30.4004V36.8H32.0004V37.6H32.8004V36.8H34.4004V37.6H37.6004V9.60002H28.8004ZM8.00039 10V11.2H7.20039V10.3094L8.00039 10ZM6.40039 10.6125V11.2H5.60039V10.9219L6.40039 10.6125ZM15.2004 11.2H16.0004V12H15.2004V11.2ZM16.8004 11.2H17.6004V12H16.8004V11.2ZM18.4004 11.2H19.2004V12H18.4004V11.2ZM20.0004 11.2H20.8004V12H20.0004V11.2ZM21.6004 11.2H22.4004V12H21.6004V11.2ZM23.2004 11.2H24.0004V12H23.2004V11.2ZM5.60039 12H6.40039V13.6H5.60039V12ZM7.20039 12H8.00039V13.6H7.20039V12ZM8.80039 12H9.60039V13.6H8.80039V12ZM15.2004 12.8H16.0004V13.6H15.2004V12.8ZM16.8004 12.8H17.6004V13.6H16.8004V12.8ZM18.4004 12.8H19.2004V13.6H18.4004V12.8ZM20.0004 12.8H20.8004V13.6H20.0004V12.8ZM21.6004 12.8H22.4004V13.6H21.6004V12.8ZM23.2004 12.8H24.0004V13.6H23.2004V12.8ZM30.4004 12.8H32.0004V13.6H30.4004V12.8ZM32.8004 12.8H34.4004V13.6H32.8004V12.8ZM5.60039 14.4H6.40039V16H5.60039V14.4ZM7.20039 14.4H8.00039V16H7.20039V14.4ZM8.80039 14.4H9.60039V16H8.80039V14.4ZM15.2004 14.4H16.0004V15.2H15.2004V14.4ZM16.8004 14.4H17.6004V15.2H16.8004V14.4ZM18.4004 14.4H19.2004V15.2H18.4004V14.4ZM20.0004 14.4H20.8004V15.2H20.0004V14.4ZM21.6004 14.4H22.4004V15.2H21.6004V14.4ZM23.2004 14.4H24.0004V15.2H23.2004V14.4ZM30.4004 14.4H32.0004V15.2H30.4004V14.4ZM32.8004 14.4H34.4004V15.2H32.8004V14.4ZM15.2004 16H16.0004V16.8H15.2004V16ZM16.8004 16H17.6004V16.8H16.8004V16ZM18.4004 16H19.2004V16.8H18.4004V16ZM20.0004 16H20.8004V16.8H20.0004V16ZM21.6004 16H22.4004V16.8H21.6004V16ZM23.2004 16H24.0004V16.8H23.2004V16ZM30.4004 16H32.0004V16.8H30.4004V16ZM32.8004 16H34.4004V16.8H32.8004V16ZM5.60039 16.8H6.40039V18.4H5.60039V16.8ZM7.20039 16.8H8.00039V18.4H7.20039V16.8ZM8.80039 16.8H9.60039V18.4H8.80039V16.8ZM15.2004 17.6H16.0004V18.4H15.2004V17.6ZM16.8004 17.6H17.6004V18.4H16.8004V17.6ZM18.4004 17.6H19.2004V18.4H18.4004V17.6ZM20.0004 17.6H20.8004V18.4H20.0004V17.6ZM21.6004 17.6H22.4004V18.4H21.6004V17.6ZM23.2004 17.6H24.0004V18.4H23.2004V17.6ZM30.4004 17.6H32.0004V18.4H30.4004V17.6ZM32.8004 17.6H34.4004V18.4H32.8004V17.6ZM5.60039 19.2H6.40039V20.8H5.60039V19.2ZM7.20039 19.2H8.00039V20.8H7.20039V19.2ZM8.80039 19.2H9.60039V20.8H8.80039V19.2ZM15.2004 19.2H16.0004V20H15.2004V19.2ZM16.8004 19.2H17.6004V20H16.8004V19.2ZM18.4004 19.2H19.2004V20H18.4004V19.2ZM20.0004 19.2H20.8004V20H20.0004V19.2ZM21.6004 19.2H22.4004V20H21.6004V19.2ZM23.2004 19.2H24.0004V20H23.2004V19.2ZM30.4004 19.2H32.0004V20H30.4004V19.2ZM32.8004 19.2H34.4004V20H32.8004V19.2ZM15.2004 20.8H16.0004V21.6H15.2004V20.8ZM16.8004 20.8H17.6004V21.6H16.8004V20.8ZM18.4004 20.8H19.2004V21.6H18.4004V20.8ZM20.0004 20.8H20.8004V21.6H20.0004V20.8ZM21.6004 20.8H22.4004V21.6H21.6004V20.8ZM23.2004 20.8H24.0004V21.6H23.2004V20.8ZM30.4004 20.8H32.0004V21.6H30.4004V20.8ZM32.8004 20.8H34.4004V21.6H32.8004V20.8ZM5.60039 21.6H6.40039V23.2H5.60039V21.6ZM7.20039 21.6H8.00039V23.2H7.20039V21.6ZM8.80039 21.6H9.60039V23.2H8.80039V21.6ZM15.2004 22.4H16.0004V23.2H15.2004V22.4ZM16.8004 22.4H17.6004V23.2H16.8004V22.4ZM18.4004 22.4H19.2004V23.2H18.4004V22.4ZM20.0004 22.4H20.8004V23.2H20.0004V22.4ZM21.6004 22.4H22.4004V23.2H21.6004V22.4ZM23.2004 22.4H24.0004V23.2H23.2004V22.4ZM30.4004 22.4H32.0004V23.2H30.4004V22.4ZM32.8004 22.4H34.4004V23.2H32.8004V22.4ZM5.60039 24H6.40039V25.6H5.60039V24ZM7.20039 24H8.00039V25.6H7.20039V24ZM8.80039 24H9.60039V25.6H8.80039V24ZM15.2004 24H16.0004V24.8H15.2004V24ZM16.8004 24H17.6004V24.8H16.8004V24ZM18.4004 24H19.2004V24.8H18.4004V24ZM20.0004 24H20.8004V24.8H20.0004V24ZM21.6004 24H22.4004V24.8H21.6004V24ZM23.2004 24H24.0004V24.8H23.2004V24ZM30.4004 24H32.0004V24.8H30.4004V24ZM32.8004 24H34.4004V24.8H32.8004V24ZM15.2004 25.6H16.0004V26.4H15.2004V25.6ZM16.8004 25.6H17.6004V26.4H16.8004V25.6ZM18.4004 25.6H19.2004V26.4H18.4004V25.6ZM20.0004 25.6H20.8004V26.4H20.0004V25.6ZM21.6004 25.6H22.4004V26.4H21.6004V25.6ZM23.2004 25.6H24.0004V26.4H23.2004V25.6ZM30.4004 25.6H32.0004V26.4H30.4004V25.6ZM32.8004 25.6H34.4004V26.4H32.8004V25.6ZM5.60039 26.4H6.40039V28H5.60039V26.4ZM7.20039 26.4H8.00039V28H7.20039V26.4ZM8.80039 26.4H9.60039V28H8.80039V26.4ZM15.2004 27.2H16.0004V28H15.2004V27.2ZM16.8004 27.2H17.6004V28H16.8004V27.2ZM18.4004 27.2H19.2004V28H18.4004V27.2ZM20.0004 27.2H20.8004V28H20.0004V27.2ZM21.6004 27.2H22.4004V28H21.6004V27.2ZM23.2004 27.2H24.0004V28H23.2004V27.2ZM30.4004 27.2H32.0004V28H30.4004V27.2ZM32.8004 27.2H34.4004V28H32.8004V27.2ZM5.60039 28.8H6.40039V30.4H5.60039V28.8ZM7.20039 28.8H8.00039V30.4H7.20039V28.8ZM8.80039 28.8H9.60039V30.4H8.80039V28.8ZM15.2004 28.8H16.0004V29.6H15.2004V28.8ZM16.8004 28.8H17.6004V29.6H16.8004V28.8ZM18.4004 28.8H19.2004V29.6H18.4004V28.8ZM20.0004 28.8H20.8004V29.6H20.0004V28.8ZM21.6004 28.8H22.4004V29.6H21.6004V28.8ZM23.2004 28.8H24.0004V29.6H23.2004V28.8ZM30.4004 28.8H32.0004V29.6H30.4004V28.8ZM32.8004 28.8H34.4004V29.6H32.8004V28.8ZM15.2004 30.4H16.0004V31.2H15.2004V30.4ZM16.8004 30.4H17.6004V31.2H16.8004V30.4ZM18.4004 30.4H19.2004V31.2H18.4004V30.4ZM20.0004 30.4H20.8004V31.2H20.0004V30.4ZM21.6004 30.4H22.4004V31.2H21.6004V30.4ZM23.2004 30.4H24.0004V31.2H23.2004V30.4ZM30.4004 30.4H32.0004V31.2H30.4004V30.4ZM32.8004 30.4H34.4004V31.2H32.8004V30.4ZM5.60039 31.2H6.40039V32.8H5.60039V31.2ZM7.20039 31.2H8.00039V32.8H7.20039V31.2ZM8.80039 31.2H9.60039V32.8H8.80039V31.2ZM15.2004 32H16.0004V32.8H15.2004V32ZM16.8004 32H17.6004V32.8H16.8004V32ZM18.4004 32H19.2004V32.8H18.4004V32ZM20.0004 32H20.8004V32.8H20.0004V32ZM21.6004 32H22.4004V32.8H21.6004V32ZM23.2004 32H24.0004V32.8H23.2004V32ZM30.4004 32H32.0004V32.8H30.4004V32ZM32.8004 32H34.4004V32.8H32.8004V32ZM5.60039 33.6H6.40039V35.2H5.60039V33.6ZM7.20039 33.6H8.00039V35.2H7.20039V33.6ZM8.80039 33.6H9.60039V35.2H8.80039V33.6ZM15.2004 33.6H16.0004V34.4H15.2004V33.6ZM16.8004 33.6H17.6004V34.4H16.8004V33.6ZM18.4004 33.6H19.2004V34.4H18.4004V33.6ZM20.0004 33.6H20.8004V34.4H20.0004V33.6ZM21.6004 33.6H22.4004V34.4H21.6004V33.6ZM23.2004 33.6H24.0004V34.4H23.2004V33.6ZM30.4004 33.6H32.0004V34.4H30.4004V33.6ZM32.8004 33.6H34.4004V34.4H32.8004V33.6ZM15.2004 35.2H16.0004V36H15.2004V35.2ZM16.8004 35.2H17.6004V36H16.8004V35.2ZM18.4004 35.2H19.2004V36H18.4004V35.2ZM20.0004 35.2H20.8004V36H20.0004V35.2ZM21.6004 35.2H22.4004V36H21.6004V35.2ZM23.2004 35.2H24.0004V36H23.2004V35.2ZM30.4004 35.2H32.0004V36H30.4004V35.2ZM32.8004 35.2H34.4004V36H32.8004V35.2Z" fill="url(#paint0_linear_436_114)"/>
<defs>
<linearGradient id="paint0_linear_436_114" x1="42.1132" y1="2.40003" x2="2.38472" y2="37.598" gradientUnits="userSpaceOnUse">
<stop offset="0.25" stop-color="#3B768F"/>
<stop offset="0.536458" stop-color="#3EC6FF"/>
<stop offset="0.817708" stop-color="#3B768F"/>
</linearGradient>
</defs>
</svg>
